<?xml version="1.0" encoding="utf-8"?>
<!-- Generator: Adobe Illustrator 16.0.0, SVG Export Plug-In . SVG Version: 6.00 Build 0)  -->
<!DOCTYPE svg PUBLIC "-//W3C//DTD SVG 1.1//EN" "http://www.w3.org/Graphics/SVG/1.1/DTD/svg11.dtd">
<svg version="1.1" id="Calque_1" xmlns="http://www.w3.org/2000/svg" xmlns:xlink="http://www.w3.org/1999/xlink" x="0px" y="0px"
	 width="24px" height="24px" viewBox="0 0 24 24" enable-background="new 0 0 24 24" xml:space="preserve">
<path fill="#FFFFFF" d="M10,11H7.101l0.001-0.009c0.13-0.64,0.386-1.247,0.752-1.787c0.544-0.802,1.308-1.431,2.2-1.811
	c0.302-0.128,0.617-0.226,0.938-0.291c0.666-0.135,1.352-0.135,2.018,0c0.957,0.196,1.836,0.669,2.525,1.361l1.416-1.412
	c-0.639-0.638-1.394-1.148-2.225-1.501c-0.424-0.179-0.863-0.316-1.314-0.408c-0.93-0.189-1.889-0.189-2.819,0
	c-0.451,0.092-0.892,0.229-1.316,0.409c-1.25,0.53-2.319,1.41-3.08,2.534c-0.512,0.758-0.87,1.609-1.054,2.505
	C5.115,10.725,5.1,10.863,5.08,11H2l4,4L10,11z M14,13h2.898v0.008c-0.262,1.281-1.018,2.409-2.104,3.139
	c-0.54,0.365-1.147,0.621-1.787,0.752c-0.666,0.135-1.351,0.135-2.017,0c-0.64-0.131-1.247-0.387-1.787-0.752
	c-0.266-0.18-0.513-0.385-0.74-0.61L7.05,16.95c0.639,0.638,1.394,1.147,2.225,1.5c0.424,0.18,0.867,0.317,1.315,0.407
	c0.93,0.189,1.888,0.189,2.818,0c1.793-0.371,3.369-1.428,4.395-2.944c0.512-0.757,0.869-1.608,1.053-2.503
	c0.027-0.135,0.043-0.273,0.063-0.41H22l-4-4L14,13z"/>
</svg>
